# xmcd CD database file
#
# Track frame offsets:
#	182
#	22222
#	32575
#	50142
#	77477
#	99617
#	129337
#	159315
#	176650
#	205360
#	224497
#	237737
#	268302
#	294752
#	311317
#
# Disc length: 4447 seconds
#
# Revision: 1
# Processed by: cddbd v1.5.2PL0 Copyright (c) Steve Scherf et al.
# Submitted via: CDex 1.51
#
DISCID=da115d0f
DTITLE=Wes Montgomery - Giants Of Jazz - Disc 236 - Wes Montgomery
DYEAR=1996
DGENRE=Jazz
TTITLE0=Dearly Beloved
TTITLE1=While We're Young
TTITLE2=Repetition
TTITLE3=Missile Blues
TTITLE4=In Your Own Sweet Way
TTITLE5=Lolita
TTITLE6=Fried Pies
TTITLE7=Dreamsville
TTITLE8=Gone With Thw Wind
TTITLE9=Yesterday's Child
TTITLE10=Geno
TTITLE11=Bock To Bock (Black To Black)
TTITLE12=If I Should Lose You
TTITLE13=Delirium
TTITLE14=Just For Now
EXTD=Label: Giants of Jazz\nType: Compilation, 1996\nCD 53236 YEAR: 1996
EXTT0=
EXTT1=
EXTT2=
EXTT3=
EXTT4=
EXTT5=
EXTT6=
EXTT7=
EXTT8=
EXTT9=
EXTT10=
EXTT11=
EXTT12=
EXTT13=
EXTT14=
PLAYORDER=
